<svg class="diagram-root" style="background: #f5f6f6" xmlns="http://www.w3.org/2000/svg" xmlns:xlink="http://www.w3.org/1999/xlink"><style>.diagram-root { font-family: "Helvetica Neue", sans-serif; font-size: 12px; } .t { overflow: visible; } .t-bg { y: 40; fill: #fff;   } .th { fill: #005aa0;   } .tht { fill: #fff; font-size: 14px;  } .tf { fill: #323c46; overflow: visible; } .tf.pk { fill: #005aa0; font-weight: bold; } .tf.fk { font-weight: bold; } .ty { fill: #adb1b5; font-weight: normal; text-anchor: end; } .r { fill: transparent; stroke: #c3c3c3; stroke-width: 1; } .l { stroke: 1; } .i { fill: #c2c7ce; stroke: #c2c7ce; } .i.ix { fill: #afb3b6; stroke: #000; } .fa { fill: transparent; overflow: visible; } .fa .bg.hover { fill: #f7f7f7; } .c { cy: 12; r: 4; stroke: #d2d2dc; fill: #d2d2dc; } .hr { fill: transparent; stroke: #323c46; stroke-opacity: 0.035; stroke-width: 13; } .dc { stroke: #fa5a3c; fill: #fa5a3c; } .x { stroke: white; stroke-width: 1; } .hl .th { fill: #1b9bff; } .hl .tht {  } .fhl .bg { fill: #e7f4ff; } .fhls .bg {  } .r.hl { stroke: #1b9bff; } .dim { opacity: 0.25; }</style><g class="drawing-wrapper" transform="translate(-61.33666666666673, 9.999999999999858) scale(1,1)"><g class="rs"><path d="M 786.67 77 m -1, 0 a 1,1 0 1,0 2,0 a 1,1 0 1,0 -2,0 M 786.67 77 m -0.5, 0 a 0.5,0.5 0 1,0 1,0 a 0.5,0.5 0 1,0 -1,0  M786.67 77 L786.67 77 774.67 77 M 786.67 83 m -1, 0 a 1,1 0 1,0 2,0 a 1,1 0 1,0 -2,0 M 786.67 83 m -0.5, 0 a 0.5,0.5 0 1,0 1,0 a 0.5,0.5 0 1,0 -1,0  M786.67 83 L786.67 83 779.67 77 786.67 71 M 786.67 71 m -1, 0 a 1,1 0 1,0 2,0 a 1,1 0 1,0 -2,0 M 786.67 71 m -0.5, 0 a 0.5,0.5 0 1,0 1,0 a 0.5,0.5 0 1,0 -1,0  M774.67 77 Q 735.85 77, 697.03 80.34 T 619.38 83.67 M 607.38 83.67 m -1, 0 a 1,1 0 1,0 2,0 a 1,1 0 1,0 -2,0 M 607.38 83.67 m -0.5, 0 a 0.5,0.5 0 1,0 1,0 a 0.5,0.5 0 1,0 -1,0  M607.38 83.67 L607.38 83.67 619.38 83.67 M613.38 89.67 L613.38 89.67 613.38 77.67" id="h802454984" class="r"></path><path d="M 792.51 267.83000000000004 m -1, 0 a 1,1 0 1,0 2,0 a 1,1 0 1,0 -2,0 M 792.51 267.83000000000004 m -0.5, 0 a 0.5,0.5 0 1,0 1,0 a 0.5,0.5 0 1,0 -1,0  M792.51 267.83000000000004 L792.51 267.83000000000004 780.51 267.83000000000004 M 792.51 273.83000000000004 m -1, 0 a 1,1 0 1,0 2,0 a 1,1 0 1,0 -2,0 M 792.51 273.83000000000004 m -0.5, 0 a 0.5,0.5 0 1,0 1,0 a 0.5,0.5 0 1,0 -1,0  M792.51 273.83000000000004 L792.51 273.83000000000004 785.51 267.83000000000004 792.51 261.83000000000004 M 792.51 261.83000000000004 m -1, 0 a 1,1 0 1,0 2,0 a 1,1 0 1,0 -2,0 M 792.51 261.83000000000004 m -0.5, 0 a 0.5,0.5 0 1,0 1,0 a 0.5,0.5 0 1,0 -1,0  M780.51 267.83000000000004 Q 740.23 267.83000000000004, 699.95 175.75 T 619.38 83.67 M 607.38 83.67 m -1, 0 a 1,1 0 1,0 2,0 a 1,1 0 1,0 -2,0 M 607.38 83.67 m -0.5, 0 a 0.5,0.5 0 1,0 1,0 a 0.5,0.5 0 1,0 -1,0  M607.38 83.67 L607.38 83.67 619.38 83.67 M613.38 89.67 L613.38 89.67 613.38 77.67" id="h1439821345" class="r"></path><path d="M 800 437 m -1, 0 a 1,1 0 1,0 2,0 a 1,1 0 1,0 -2,0 M 800 437 m -0.5, 0 a 0.5,0.5 0 1,0 1,0 a 0.5,0.5 0 1,0 -1,0  M800 437 L800 437 788 437 M 800 443 m -1, 0 a 1,1 0 1,0 2,0 a 1,1 0 1,0 -2,0 M 800 443 m -0.5, 0 a 0.5,0.5 0 1,0 1,0 a 0.5,0.5 0 1,0 -1,0  M800 443 L800 443 793 437 800 431 M 800 431 m -1, 0 a 1,1 0 1,0 2,0 a 1,1 0 1,0 -2,0 M 800 431 m -0.5, 0 a 0.5,0.5 0 1,0 1,0 a 0.5,0.5 0 1,0 -1,0  M788 437 Q 745.85 437, 703.69 260.33 T 619.38 83.67 M 607.38 83.67 m -1, 0 a 1,1 0 1,0 2,0 a 1,1 0 1,0 -2,0 M 607.38 83.67 m -0.5, 0 a 0.5,0.5 0 1,0 1,0 a 0.5,0.5 0 1,0 -1,0  M607.38 83.67 L607.38 83.67 619.38 83.67 M613.38 89.67 L613.38 89.67 613.38 77.67" id="h4024273133" class="r"></path><path d="M 231.82 156.16 m -1, 0 a 1,1 0 1,0 2,0 a 1,1 0 1,0 -2,0 M 231.82 156.16 m -0.5, 0 a 0.5,0.5 0 1,0 1,0 a 0.5,0.5 0 1,0 -1,0  M231.82 156.16 L231.82 156.16 243.82 156.16 M 231.82 162.16 m -1, 0 a 1,1 0 1,0 2,0 a 1,1 0 1,0 -2,0 M 231.82 162.16 m -0.5, 0 a 0.5,0.5 0 1,0 1,0 a 0.5,0.5 0 1,0 -1,0  M231.82 162.16 L231.82 162.16 238.82 156.16 231.82 150.16 M 231.82 150.16 m -1, 0 a 1,1 0 1,0 2,0 a 1,1 0 1,0 -2,0 M 231.82 150.16 m -0.5, 0 a 0.5,0.5 0 1,0 1,0 a 0.5,0.5 0 1,0 -1,0  M243.82 156.16 Q 292.37 156.16, 340.91 119.92 T 438 83.67 M 450 83.67 m -1, 0 a 1,1 0 1,0 2,0 a 1,1 0 1,0 -2,0 M 450 83.67 m -0.5, 0 a 0.5,0.5 0 1,0 1,0 a 0.5,0.5 0 1,0 -1,0  M450 83.67 L450 83.67 438 83.67 M444 89.67 L444 89.67 444 77.67" id="h2710094910" class="r"></path><path d="M 214.87 391.17 m -1, 0 a 1,1 0 1,0 2,0 a 1,1 0 1,0 -2,0 M 214.87 391.17 m -0.5, 0 a 0.5,0.5 0 1,0 1,0 a 0.5,0.5 0 1,0 -1,0  M214.87 391.17 L214.87 391.17 226.87 391.17 M 214.87 397.17 m -1, 0 a 1,1 0 1,0 2,0 a 1,1 0 1,0 -2,0 M 214.87 397.17 m -0.5, 0 a 0.5,0.5 0 1,0 1,0 a 0.5,0.5 0 1,0 -1,0  M214.87 397.17 L214.87 397.17 221.87 391.17 214.87 385.17 M 214.87 385.17 m -1, 0 a 1,1 0 1,0 2,0 a 1,1 0 1,0 -2,0 M 214.87 385.17 m -0.5, 0 a 0.5,0.5 0 1,0 1,0 a 0.5,0.5 0 1,0 -1,0  M226.87 391.17 Q 279.65 391.17, 332.44 237.42 T 438 83.67 M 450 83.67 m -1, 0 a 1,1 0 1,0 2,0 a 1,1 0 1,0 -2,0 M 450 83.67 m -0.5, 0 a 0.5,0.5 0 1,0 1,0 a 0.5,0.5 0 1,0 -1,0  M450 83.67 L450 83.67 438 83.67 M444 89.67 L444 89.67 444 77.67" id="h239329100" class="r"></path></g><g class="hrs"></g><g class="ts"><svg width="157.38" height="100" x="450" y="26.67" id="h1156282791" class="t"><rect height="40" width="157.38" class="th"></rect><text x="13" y="25" class="tht">player</text><rect height="60" width="157.38" class="t-bg"></rect><text x="13" y="61" class="tf pk">player_id<tspan x="144.38" class="ty">SERIAL</tspan></text><path d="M7,14A2,2 0 0,1 5,12A2,2 0 0,1 7,10A2,2 0 0,1 9,12A2,2 0 0,1 7,14M12.65,10C11.83,7.67 9.61,6 7, 6A6, 6 0 0, 0 1, 12A6, 6 0 0, 0 7, 18C9.61, 18 11.83, 16.33 12.65, 14H17V18H21V14H23V10H12.65Z" class="i pk" transform="translate(81.694453125, 48) scale(0.65)"></path><text x="13" y="86" class="tf">name<tspan x="144.38" class="ty">VARCHAR</tspan></text></svg><svg width="145.15" height="175" x="786.67" y="20" id="h400310317" class="t"><rect height="40" width="145.15" class="th"></rect><text x="13" y="25" class="tht">info</text><rect height="135" width="145.15" class="t-bg"></rect><text x="13" y="61" class="tf fk">player_id<tspan x="132.15" class="ty">INT</tspan></text><text x="13" y="86" class="tf">position<tspan x="132.15" class="ty">VARCHAR</tspan></text><text x="13" y="111" class="tf">height<tspan x="132.15" class="ty">FLOAT</tspan></text><text x="13" y="136" class="tf">weight<tspan x="132.15" class="ty">FLOAT</tspan></text><text x="13" y="161" class="tf">year<tspan x="132.15" class="ty">INT</tspan></text></svg><svg width="138.47" height="150" x="792.51" y="210.83" id="h1452255103" class="t"><rect height="40" width="138.47" class="th"></rect><text x="13" y="25" class="tht">college</text><rect height="110" width="138.47" class="t-bg"></rect><text x="13" y="61" class="tf fk">player_id<tspan x="125.47" class="ty">INT</tspan></text><text x="13" y="86" class="tf">school<tspan x="125.47" class="ty">VARCHAR</tspan></text><text x="13" y="111" class="tf">latitud<tspan x="125.47" class="ty">FLOAT</tspan></text><text x="13" y="136" class="tf">longitud<tspan x="125.47" class="ty">FLOAT</tspan></text></svg><svg width="149.81" height="100" x="800" y="380" id="h2129428134" class="t"><rect height="40" width="149.81" class="th"></rect><text x="13" y="25" class="tht">teams</text><rect height="60" width="149.81" class="t-bg"></rect><text x="13" y="61" class="tf fk">player_id<tspan x="136.81" class="ty">INT</tspan></text><text x="13" y="86" class="tf">nfl_team<tspan x="136.81" class="ty">VARCHAR</tspan></text></svg><svg width="148.48" height="225" x="83.34" y="99.16" id="h3660451652" class="t"><rect height="40" width="148.48" class="th"></rect><text x="13" y="25" class="tht">combine</text><rect height="185" width="148.48" class="t-bg"></rect><text x="13" y="61" class="tf fk">player_id<tspan x="135.48" class="ty">INT</tspan></text><text x="13" y="86" class="tf">40yd<tspan x="135.48" class="ty">FLOAT</tspan></text><text x="13" y="111" class="tf">Vertical<tspan x="135.48" class="ty">FLOAT</tspan></text><text x="13" y="136" class="tf">Bench<tspan x="135.48" class="ty">FLOAT</tspan></text><text x="13" y="161" class="tf">Broad Jump<tspan x="135.48" class="ty">FLOAT</tspan></text><text x="13" y="186" class="tf">3Cone<tspan x="135.48" class="ty">FLOAT</tspan></text><text x="13" y="211" class="tf">Shuttle<tspan x="135.48" class="ty">FLOAT</tspan></text></svg><svg width="127.37" height="150" x="87.5" y="334.17" id="h293244647" class="t"><rect height="40" width="127.37" class="th"></rect><text x="13" y="25" class="tht">draft</text><rect height="110" width="127.37" class="t-bg"></rect><text x="13" y="61" class="tf fk">player_id<tspan x="114.37" class="ty">INT</tspan></text><text x="13" y="86" class="tf">Round<tspan x="114.37" class="ty">INT</tspan></text><text x="13" y="111" class="tf">Pick_no<tspan x="114.37" class="ty">INT</tspan></text><text x="13" y="136" class="tf">Conference<tspan x="114.37" class="ty">INT</tspan></text></svg></g></g><text class="qdbd-link" x="10" y="20">www.quickdatabasediagrams.com</text></svg>